<?xml version="1.0" encoding="UTF-8" standalone="no"?>
<!-- Created with Inkscape (http://www.inkscape.org/) -->

<svg
   xmlns:dc="http://purl.org/dc/elements/1.1/"
   xmlns:cc="http://creativecommons.org/ns#"
   xmlns:rdf="http://www.w3.org/1999/02/22-rdf-syntax-ns#"
   xmlns:svg="http://www.w3.org/2000/svg"
   xmlns="http://www.w3.org/2000/svg"
   xmlns:sodipodi="http://sodipodi.sourceforge.net/DTD/sodipodi-0.dtd"
   xmlns:inkscape="http://www.inkscape.org/namespaces/inkscape"
   version="1.1"
   id="svg2"
   width="1000"
   height="890"
   viewBox="0 0 1000 890"
   sodipodi:docname="Hellenism_symbol.svg"
   inkscape:version="0.92.2 (5c3e80d, 2017-08-06)">
  <metadata
     id="metadata8">
    <rdf:RDF>
      <cc:Work
         rdf:about="">
        <dc:format>image/svg+xml</dc:format>
        <dc:type
           rdf:resource="http://purl.org/dc/dcmitype/StillImage" />
        <dc:title></dc:title>
      </cc:Work>
    </rdf:RDF>
  </metadata>
  <defs
     id="defs6" />
  <sodipodi:namedview
     pagecolor="#ffffff"
     bordercolor="#666666"
     borderopacity="1"
     objecttolerance="10"
     gridtolerance="10"
     guidetolerance="10"
     inkscape:pageopacity="0"
     inkscape:pageshadow="2"
     inkscape:window-width="1280"
     inkscape:window-height="961"
     id="namedview4"
     showgrid="false"
     inkscape:zoom="0.43457604"
     inkscape:cx="323.76721"
     inkscape:cy="322.45681"
     inkscape:window-x="-8"
     inkscape:window-y="-8"
     inkscape:window-maximized="1"
     inkscape:current-layer="svg2" />
  <path
     style="fill:#000000;stroke-width:2.45830989"
     d="m 269.56529,879.00472 c -4.91849,-5.44417 -8.94272,-11.45633 -8.94272,-13.36037 0,-8.68533 33.97059,-27.55525 122.30738,-67.93897 24.67883,-11.28207 44.03802,-21.2464 43.02044,-22.14294 -1.01763,-0.89658 -21.9159,-6.5989 -46.44063,-12.67186 -33.12866,-8.20352 -45.7666,-10.40892 -49.1662,-8.57987 -2.51667,1.35405 -10.3827,7.88965 -17.48003,14.52359 -15.50706,14.49459 -29.5856,21.12619 -49.20259,23.17659 -29.4551,3.07866 -70.22413,-9.02834 -76.45546,-22.70465 -4.60095,-10.09794 2.56377,-19.32744 32.24576,-41.53869 35.56847,-26.61615 33.88365,-24.16981 23.83546,-34.60838 -13.16863,-13.68025 -30.83079,-25.76921 -39.72399,-27.1893 -4.61476,-0.73691 -15.97825,0.90557 -26.47326,3.82646 -24.37875,6.78486 -32.86406,6.46269 -50.44478,-1.91525 -29.517124,-14.06613 -56.159111,-38.37946 -59.308059,-54.12424 -1.32198,-6.60988 -0.524603,-7.7777 8.429644,-12.3458 5.439355,-2.77497 22.984017,-7.3727 38.988155,-10.21719 16.00415,-2.84445 30.04972,-6.09004 31.21242,-7.21235 2.40522,-2.32171 -11.13753,-30.52283 -18.45843,-38.4374 -3.96572,-4.28732 -8.88923,-5.53175 -27.43158,-6.9333 C 84.844867,537.45948 73.456525,535.08477 65.140136,531.32578 39.623664,519.79239 2.5000131,477.28101 2.5000131,459.59477 c 0,-6.8241 1.3818399,-8.97541 7.9452579,-12.36948 6.925108,-3.58112 13.39565,-3.89593 50.395355,-2.45177 40.181094,1.56831 42.450094,1.4151 42.450094,-2.86642 0,-6.68333 -9.837742,-43.05473 -12.519432,-46.28596 -1.270333,-1.53067 -9.136384,-5.27215 -17.480085,-8.31443 -28.155048,-10.26582 -52.314335,-41.90789 -58.776937,-76.98173 -2.646199,-14.36144 -2.49902,-16.82681 1.355659,-22.70979 3.957511,-6.03995 5.40339,-6.50992 17.054427,-5.54373 8.382297,0.69513 22.315334,5.40725 40.793934,13.79642 20.773117,9.43089 28.553004,11.94897 29.947314,9.69295 4.90713,-7.93992 19.50762,-57.18076 18.32001,-61.7852 -0.73934,-2.86647 -6.45808,-11.29608 -12.70833,-18.73247 -14.711127,-17.5029 -18.278108,-26.08815 -18.278108,-43.99274 0,-48.30992 13.803468,-84.984645 28.885158,-76.74556 7.41695,4.05188 21.60659,20.44827 34.66767,40.05919 6.91674,10.38535 13.87038,19.68246 15.45249,20.66028 1.7323,1.07059 7.72846,-3.3084 15.07355,-11.00817 14.35594,-15.0492 14.45806,-19.73668 0.86065,-39.50382 -10.69008,-15.540664 -12.56679,-26.709826 -7.65714,-45.571879 4.99017,-19.1715 26.855,-64.0807208 32.19678,-66.1305603 6.4989,-2.49385462 12.78326,5.0640222 25.85949,31.0996463 6.62091,13.182685 12.6933,23.968525 13.49422,23.968525 0.80089,0 12.68289,-5.974601 26.40441,-13.276916 30.26896,-16.108472 56.45344,-25.698689 75.64195,-27.704286 11.81285,-1.234687 14.60839,-0.803321 15.85548,2.446524 2.92768,7.62939 -15.61909,34.296376 -57.47965,82.645666 l -10.59694,12.23956 9.23545,3.8588 c 14.62832,6.1121 25.47912,15.50282 25.47912,22.05063 0,7.45266 -11.50687,17.21574 -31.176,26.45149 -12.23347,5.74428 -18.95386,7.22575 -34.46242,7.59703 -17.92488,0.42912 -20.13246,-0.0946 -31.72611,-7.52828 -6.85337,-4.39423 -14.26126,-7.9895 -16.46198,-7.9895 -4.44742,0 -21.38054,13.92969 -21.38054,17.58827 0,3.66632 14.03217,8.42251 38.66128,13.1042 12.47524,2.3714 23.97613,5.87061 25.55751,7.77607 4.04148,4.86971 -10.99856,26.15037 -32.64747,46.19393 l -16.81752,15.57045 -25.61667,0.94828 c -29.81917,1.1038 -33.33626,3.07922 -39.72425,22.31163 -5.97632,17.99306 -3.65951,18.59805 31.42872,8.20688 18.70104,-5.53821 24.07503,-2.93068 24.07503,11.68142 0,13.66579 -5.8083,35.60564 -13.38388,50.55531 -7.48214,14.76531 -26.12439,31.57699 -37.35065,33.68305 -11.57229,2.17099 -15.63984,9.04895 -15.63984,26.44597 v 14.51538 l 18.30772,-17.39055 c 35.44728,-33.67147 46.25888,-33.18534 53.08217,2.38679 3.36499,17.54272 3.32039,48.4057 -0.0829,57.35693 -1.50782,3.96594 -9.81186,16.70667 -18.45335,28.31277 -20.87354,28.03445 -21.56042,30.15904 -15.55216,48.10485 2.68514,8.02014 5.77745,15.51039 6.87179,16.64502 1.09434,1.13463 8.32045,-8.82153 16.05799,-22.12479 27.42871,-47.15845 29.15389,-48.578 42.09278,-34.63557 16.36829,17.63783 25.50805,41.94248 25.50805,67.83148 0,20.59444 -4.43988,34.03066 -17.32823,52.43948 l -9.76596,13.9491 10.47421,8.40557 c 5.76082,4.62308 15.55297,11.82957 21.76037,16.01444 l 11.28614,7.60885 2.73699,-25.04689 c 2.99171,-27.37786 10.70544,-55.79381 16.80014,-61.8885 3.53011,-3.53011 4.5684,-3.473 11.61253,0.63879 9.58862,5.59706 35.99045,36.78004 44.71897,52.81719 5.68369,10.4428 6.71532,15.91269 8.22803,43.62662 1.41614,25.94417 2.56563,32.61063 6.34268,36.78423 5.10531,5.64128 34.57961,15.36567 64.33458,21.22572 26.10774,5.14175 85.6913,5.08983 117.65097,-0.10252 28.38211,-4.6111 70.66278,-15.22348 80.50966,-20.2078 7.80007,-3.94826 7.87319,-4.51468 3.12206,-24.19134 -1.95884,-8.11243 -3.60092,-21.41247 -3.64907,-29.55565 -0.0755,-12.74672 1.19449,-17.00384 9.1311,-30.61093 9.71325,-16.65302 43.85988,-54.14481 49.31386,-54.14481 6.18661,0 15.22536,26.7997 25.50005,75.60721 l 3.23743,15.3786 19.0519,-14.88986 c 10.47854,-8.18941 19.0519,-16.06783 19.0519,-17.50757 0,-1.43973 -3.72869,-7.74399 -8.286,-14.00944 -15.187,-20.87941 -17.34669,-26.92798 -17.23394,-48.26641 0.14701,-27.82564 10.33557,-59.70343 23.76759,-74.36387 10.89716,-11.89383 18.35236,-5.97753 41.55896,32.98037 8.32316,13.97247 16.65051,25.40449 18.50519,25.40449 3.9232,0 15.3782,-23.24696 15.41348,-31.28032 0.0148,-3.21727 -6.30043,-12.70143 -15.34042,-23.04059 -27.34154,-31.27084 -25.19768,-25.43871 -25.19768,-68.54727 0,-65.27617 6.17609,-68.4749 53.91075,-27.92151 11.65796,9.90414 15.53715,10.28066 17.68654,1.71671 3.00864,-11.98731 -1.63415,-18.61525 -18.87649,-26.94774 -28.46976,-13.75824 -46.51789,-42.48627 -48.53019,-77.24774 -1.01651,-17.55959 -0.73331,-18.97032 4.05968,-20.22372 6.77385,-1.77141 18.01769,1.06642 35.4548,8.94845 7.81297,3.53164 14.88062,6.42118 15.70587,6.42118 2.89676,0 -1.14545,-28.7862 -5.122,-36.47603 l -4.01985,-7.77355 h -22.69247 c -12.48087,0 -26.33608,-1.04497 -30.78935,-2.32215 -15.48123,-4.43997 -54.55757,-43.9093 -54.55757,-55.10626 0,-6.90786 11.53419,-11.78504 35.92847,-15.19216 26.99978,-3.77108 30.1307,-5.53213 25.99046,-14.61895 -5.08182,-11.15343 -12.8114,-12.55189 -28.83361,-5.21669 -27.69324,12.67839 -53.21128,10.44465 -82.37763,-7.21098 -26.47597,-16.027 -27.86207,-22.72052 -7.21622,-34.84716 7.41847,-4.35733 15.01611,-8.82249 16.8837,-9.92258 2.5761,-1.51744 -0.93856,-7.02277 -14.5634,-22.811987 -35.58372,-41.236307 -51.5466,-66.479 -46.15104,-72.980274 6.52907,-7.867044 37.63725,0.05408 80.40226,20.472858 18.10414,8.64413 33.81597,15.716588 34.91518,15.716588 1.09918,0 7.17806,-10.028525 13.5086,-22.28561 6.33054,-12.257076 14.17573,-24.0322088 17.43375,-26.166947 5.61549,-3.6794085 6.29129,-3.5291525 12.98978,2.8884282 9.07033,8.6899258 20.62249,30.4998778 25.97458,49.0388098 5.37961,18.634279 3.51652,35.676807 -6.25652,57.230734 -4.03555,8.90024 -7.33737,18.37007 -7.33737,21.04407 0,4.68766 13.62595,25.29948 20.49171,30.99755 2.6756,2.22056 5.88704,-1.3891 16.08908,-18.08412 13.42861,-21.97515 36.66059,-47.95502 42.88281,-47.95502 6.22618,0 15.8324,13.95404 18.64969,27.09066 1.47258,6.86634 2.67329,25.42816 2.66823,41.24844 -0.01,31.88524 -0.94262,34.55738 -19.90625,57.04714 -5.80725,6.88707 -9.58429,13.90368 -9.58429,17.80482 0,5.67129 17.44642,56.98973 20.36749,59.91081 0.61813,0.61812 14.91971,-4.4492 31.78133,-11.26068 47.82183,-19.31834 58.01039,-17.00622 55.32983,12.55619 -1.5124,16.67875 -14.67744,45.35591 -27.92915,60.83757 -4.72908,5.52485 -15.98898,14.10659 -25.02201,19.0705 -26.60646,14.6211 -30.22259,19.41106 -33.58979,44.49353 l -1.73258,12.90612 h 41.65513 c 45.77351,0 56.32283,2.03907 58.65655,11.33774 3.53296,14.07642 -22.28303,49.84522 -51.56912,71.4505 -13.69888,10.10611 -15.26686,10.63811 -31.958,10.84291 -9.65375,0.11849 -22.96349,0.94812 -29.57713,1.84374 l -12.02483,1.62835 -9.40713,18.43733 c -5.17393,10.14053 -9.44234,20.27602 -9.4854,22.52328 -0.0797,4.15428 1.72129,4.65164 30.65064,8.46514 15.96428,2.10442 45.44559,12.52516 51.25671,18.11767 6.08314,5.85432 3.71377,9.89848 -17.55343,29.96088 -31.67941,29.88476 -57.00017,39.38429 -86.79339,32.56203 -35.80605,-8.1991 -35.93715,-8.1802 -56.42446,8.13653 -21.47469,17.10304 -25.01879,21.01008 -23.2019,25.57774 0.74042,1.86146 11.80811,10.9788 24.59483,20.26076 24.5924,17.85173 40.51811,33.49101 40.51811,39.78932 0,14.75145 -42.7816,27.41362 -85.11506,25.19167 -22.4258,-1.17706 -20.17055,-0.0636 -47.54577,-23.47241 -17.52391,-14.9848 -22.30793,-15.74746 -48.38057,-7.71275 -32.71351,10.08121 -42.66481,14.57759 -42.66481,19.27765 0,3.27438 11.53722,10.46778 43.635,27.20624 105.41149,54.97035 106.00366,55.33909 101.66257,63.30507 -4.86951,8.93566 -12.95839,15.30736 -19.40496,15.28553 -8.02754,-0.0273 -39.03815,-12.84578 -116.05937,-47.97451 -100.22498,-45.71178 -101.37369,-45.8776 -154.87353,-22.35536 -19.60501,8.61972 -63.35928,28.38442 -97.23169,43.92155 -33.87241,15.53711 -63.86507,28.97257 -66.65034,29.85658 -3.88302,1.23244 -7.1498,-0.70132 -14.0068,-8.29121 z"
     id="path817"
     inkscape:connector-curvature="0"
     sodipodi:nodetypes="csscscsccssscsccccsscscssccsccscssscscccscsscscscsssscsscsscssssssscscccssssscccccssssscssssccsscsscccsscssscssccsscscsccssccsscssccscscssccsssscscscssscccscccsscccssssssscsssscc" />
</svg>
