<svg xmlns="http://www.w3.org/2000/svg" xmlns:xlink="http://www.w3.org/1999/xlink" version="1.1" x="0px" y="0px" viewBox="0 0 60 75" enable-background="new 0 0 60 60" xml:space="preserve"><g><path d="M39.765,19.384c0.012-2.429-2.207-2.429-2.207-2.429H25.66c0,0-2.878,0.063-3.587,2.498l-3.216,14.859   c-0.138,0.604,0.112,1.218,1.01,1.477l-3.624,18.66c-0.058,0.298,0.136,0.587,0.434,0.645c0.035,0.006,0.07,0.009,0.105,0.009   c0.258,0,0.488-0.182,0.539-0.444l3.646-18.774c0.547-0.077,0.939-0.368,1.025-0.902l3.009-13.123h0.02   c0.277-0.769,0.653-0.696,0.691-0.694h0.033c-0.01,0-0.02,0-0.03,0c0.313,0.002,0.695,0.046,0.695,0.741l0.012,19.494   c0,0.112-0.007,0.22-0.019,0.324v10.78c0,0.764,0.694,1.383,1.549,1.383h0.646c0.847,0,1.535-0.608,1.547-1.362V36.301   c0-0.695,0.383-0.738,0.696-0.74c-0.01,0-0.02,0-0.03,0h0.06c-0.01,0-0.02,0-0.03,0c0.313,0.002,0.695,0.045,0.695,0.74v0.002   h0.001v16.202c0,0.764,0.694,1.383,1.55,1.383h0.645c0.856,0,1.549-0.619,1.549-1.383V41.583c-0.003-0.06-0.006-0.12-0.006-0.182   l-0.012-19.494c0-0.695,0.383-0.739,0.696-0.741c-0.01,0-0.02,0-0.03,0h0.06c-0.01,0-0.02,0-0.03,0   c0.305,0.002,0.676,0.045,0.694,0.694h0.007l0.012,13.349c0,0.604,0.576,1.094,1.286,1.094h0.535c0.71,0,1.286-0.49,1.274-0.882   L39.765,19.384z"/><path d="M25.685,21.165c0.01,0,0.02,0,0.03,0h-0.002H25.685z"/><path d="M30.841,15.309c1.771,0,3.206-1.435,3.206-3.206c0-1.771-1.435-3.206-3.206-3.206c-1.771,0-3.206,1.435-3.206,3.206   C27.635,13.874,29.07,15.309,30.841,15.309"/></g></svg>