<svg height="64" viewBox="0 0 64 64" width="64" xmlns="http://www.w3.org/2000/svg"><path d="m7.684 41.188c.146-4.908-2.524-6.756-5.78-7.977-1.082 4.199 1.904 7.693 5.78 7.977z"/><path d="m8.421 19.273c2.076-4.445.356-7.211-2.16-9.618-2.641 3.432-1.283 7.82 2.16 9.618z"/><path d="m9.592 31.647c-.143-4.905 2.524-6.761 5.782-7.977 1.078 4.197-1.906 7.69-5.782 7.977z"/><path d="m9.592 39.212c-.143-4.905 2.524-6.756 5.782-7.975 1.078 4.196-1.906 7.69-5.782 7.975z"/><path d="m9.592 24.085c-.143-4.907 2.524-6.763 5.782-7.982 1.078 4.201-1.906 7.693-5.782 7.982z"/><path d="m7.684 33.624c.146-4.905-2.524-6.761-5.78-7.977-1.082 4.197 1.904 7.691 5.78 7.977z"/><path d="m7.684 26.062c.146-4.908-2.524-6.763-5.78-7.984-1.082 4.203 1.904 7.692 5.78 7.984z"/><path d="m44.453 63.069h-26.311l13.157-22.796zm-21.084-3.019h15.858l-7.929-13.735z"/><path d="m3.843 47.54 55.741-15.164-.828-3.063-55.745 15.166z"/><path d="m43.176.634s.408 8.041 7.456 7.359c0 0 .795-6.718-7.456-7.359z"/><path d="m50.555 26.787c-.736 1.042-1.964 1.716-3.339 1.716-1.123 0-2.223-.528-2.965-1.268-1.518-1.656-3.486-5.358-3.486-5.358-1.103-2.239-1.694-3.971-1.694-5.722 0-3.73 3.019-6.965 6.759-6.965 1.842 0 3.505.738 4.726 1.93 1.222-1.193 2.882-1.93 4.724-1.93 3.739 0 6.758 3.235 6.758 6.965 0 1.751-.592 3.483-1.694 5.722 0 0-1.968 3.701-3.486 5.358-.742.74-1.842 1.268-2.966 1.268-1.377-.001-2.603-.674-3.338-1.716z"/></svg>