<svg viewBox="0 0 64 64" xmlns="http://www.w3.org/2000/svg"><path d="m24.583 36h-15.75a3.833 3.833 0 0 1 -3.833-3.833v-21.334a3.833 3.833 0 0 1 3.833-3.833h39.334a3.833 3.833 0 0 1 3.833 3.833v20.75" fill="none" stroke="#000" stroke-linecap="round" stroke-linejoin="round" stroke-width="2"/><path d="m52 15h-47" fill="#f53e28" stroke="#000" stroke-linejoin="round" stroke-width="2"/><path d="m5 28h47" fill="#f53e28" stroke="#000" stroke-linejoin="round" stroke-width="2"/><path d="m56.346 32h-28.692a2.654 2.654 0 0 0 -2.654 2.654v23.346l7.5-7h23.846a2.654 2.654 0 0 0 2.654-2.654v-13.692a2.654 2.654 0 0 0 -2.654-2.654z" fill="none" stroke="#000" stroke-linecap="round" stroke-linejoin="round" stroke-width="2"/><path d="m8 50v2" fill="none" stroke="#000" stroke-linecap="round" stroke-linejoin="round" stroke-width="2"/><path d="m8 56v2" fill="none" stroke="#000" stroke-linecap="round" stroke-linejoin="round" stroke-width="2"/><path d="m4 54h2" fill="none" stroke="#000" stroke-linecap="round" stroke-linejoin="round" stroke-width="2"/><path d="m10 54h2" fill="none" stroke="#000" stroke-linecap="round" stroke-linejoin="round" stroke-width="2"/><path d="m19.082 44.667a1.069 1.069 0 1 1 -1.069-1.067 1.07 1.07 0 0 1 1.069 1.067z"/><g fill="none"><path d="m33 42h-3" stroke="#000" stroke-linecap="round" stroke-linejoin="round" stroke-width="2"/><path d="m30 39v3 3" stroke="#000" stroke-linecap="round" stroke-linejoin="round" stroke-width="2"/><path d="m54 44.5v.5" stroke="#000" stroke-linecap="round" stroke-linejoin="round" stroke-width="2"/><path d="m54 39v2.5" stroke="#000" stroke-linecap="round" stroke-linejoin="round" stroke-width="2"/><path d="m49 39-2 6" stroke="#000" stroke-linecap="round" stroke-linejoin="round" stroke-width="2"/><path d="m49 39 2 6" stroke="#000" stroke-linecap="round" stroke-linejoin="round" stroke-width="2"/><path d="m42 39v3 3h2" stroke="#000" stroke-linecap="round" stroke-linejoin="round" stroke-width="2"/><path d="m33 39v3 3" stroke="#000" stroke-linecap="round" stroke-linejoin="round" stroke-width="2"/><path d="m37.5 45a1.5 1.5 0 0 1 -1.5-1.5v-3a1.5 1.5 0 0 1 1.5-1.5 1.5 1.5 0 0 1 1.5 1.5v3a1.5 1.5 0 0 1 -1.5 1.5z" stroke="#000" stroke-linecap="round" stroke-linejoin="round" stroke-width="2"/></g></svg>