<svg fill="none" height="24" viewBox="0 0 24 24" width="24" xmlns="http://www.w3.org/2000/svg"><path d="m20 15v1.2c0 1.6802 0 2.5202-.327 3.162-.2876.5645-.7465 1.0234-1.311 1.311-.6418.327-1.4818.327-3.162.327h-6.4c-1.68016 0-2.52024 0-3.16197-.327-.56449-.2876-1.02343-.7465-1.31105-1.311-.32698-.6418-.32698-1.4818-.32698-3.162v-1.2m17-12h-18m0 8v-4l4 4v-4m7 3v1h-3v-4h3m0 14v-4c0-1.1046-.8954-2-2-2s-2 .8954-2 2v4zm4-14v4h3v-4z" stroke="#000" stroke-linecap="round" stroke-linejoin="round" stroke-width="2"/></svg>