<svg fill="none" height="24" viewBox="0 0 24 24" width="24" xmlns="http://www.w3.org/2000/svg"><g stroke="#141b34" stroke-width="1.5"><path d="m12 5.79314c1.1131.8058 2.2449 1.76858 3.3416 2.86523 1.0967 1.09669 2.0595 2.22853 2.8653 3.34173m-6.2069-6.20696c-1.1131.8058-2.24491 1.76858-3.34157 2.86524-1.09668 1.09669-2.05948 2.22852-2.86529 3.34172m6.20686-6.20696c3.5699-2.58435 6.9472-3.55406 8.3541-2.1472 1.4068 1.40687.4371 4.7842-2.1472 8.35416m0 0c2.5843 3.5698 3.5539 6.9471 2.1471 8.354-1.0431 1.043-3.1692.7797-5.654-.4794m3.5069-7.8746c-.8058 1.1131-1.7686 2.2449-2.8652 3.3415-1.0967 1.0967-2.2286 2.0595-3.3417 2.8653m0 0c-1.1131-.8058-2.24497-1.7686-3.34166-2.8653-1.09664-1.0966-2.05941-2.2284-2.8652-3.3415m6.20686 6.2068c-3.56986 2.5843-6.94713 3.554-8.35398 2.1472-1.40685-1.4069-.43717-4.7842 2.14712-8.354m0 0c-2.58436-3.56996-3.55407-6.9473-2.14721-8.35417 1.04307-1.04307 3.16928-.77974 5.65407.47945" stroke-linecap="round"/><circle cx="12" cy="12" r="2"/></g></svg>