<svg enable-background="new 0 0 20 20" height="20" viewBox="0 0 20 20" width="20" xmlns="http://www.w3.org/2000/svg"><path d="m0 0h20v20h-20z" fill="none"/><path d="m12.92 7.68-.5-.87c-.03-.06-.1-.08-.15-.06l-.62.25c-.13-.1-.27-.18-.42-.24l-.09-.66c-.02-.06-.08-.1-.14-.1h-1c-.06 0-.11.04-.12.11l-.1.66c-.15.06-.29.15-.42.24l-.62-.25c-.06-.02-.12 0-.15.06l-.5.87c-.03.05-.02.12.03.15l.53.41c-.02.08-.03.17-.03.25s.01.17.02.24l-.52.42c-.05.03-.06.1-.04.16l.5.87c.03.06.1.08.15.06l.62-.25c.13.1.27.18.42.24l.09.66c.03.06.08.1.14.1h1c.06 0 .12-.04.12-.11l.09-.66c.15-.06.29-.15.42-.24l.62.25c.06.02.12 0 .15-.06l.5-.87c.03-.06.02-.12-.03-.16l-.52-.41c.01-.08.02-.16.02-.24s-.01-.17-.02-.24l.53-.41c.05-.04.06-.11.04-.17zm-2.42 1.82c-.55 0-1-.45-1-1s.45-1 1-1 1 .45 1 1-.45 1-1 1z"/><path d="m10.5 4c-2.31 0-4.2 1.75-4.45 4l-1.53 2.22c-.22.33.01.78.41.78h1.07v2c0 .55.45 1 1 1h1v2h5v-3.76c1.21-.81 2-2.18 2-3.74 0-2.49-2.01-4.5-4.5-4.5zm1.5 7.65v3.35h-3v-2h-2v-3h-1.11l1.13-1.64c.07-1.86 1.59-3.36 3.48-3.36 1.93 0 3.5 1.57 3.5 3.5 0 1.39-.82 2.59-2 3.15z"/></svg>