<svg fill="none" height="24" viewBox="0 0 24 24" width="24" xmlns="http://www.w3.org/2000/svg"><g fill="#292d32"><path d="m20.3591 12.7315c-.37 0-.68-.28-.72-.65-.24-2.19996-1.42-4.17996-3.24-5.43996-.33-.23-.41-.68-.18-1.01s.68-.41 1.01-.18c2.17 1.51 3.57 3.87 3.86 6.47996.04.4-.25.76-.65.8-.03 0-.05 0-.08 0z"/><path d="m3.73931 12.7812c-.02 0-.05 0-.07 0-.4-.04-.69-.4-.65-.8.27-2.61002 1.65-4.97002 3.8-6.49002.32-.23.78-.15 1.01.17.23.33.15.78-.17 1.01-1.8 1.28-2.97 3.26-3.19 5.45002-.04.38-.36.66-.73.66z"/><path d="m15.9906 21.1003c-1.23.59-2.55.89-3.93.89-1.44 0-2.81001-.32-4.09001-.97-.36-.17-.5-.61-.32-.97.17-.36.61-.5.97-.33.63.32 1.3.54 1.98001.67.92.18 1.86.19 2.78.03.68-.12 1.35-.33 1.97-.63.37-.17.81-.03.97.34.18.36.04.8-.33.97z"/><path d="m12.0505 2.01172c-1.55 0-2.82003 1.26-2.82003 2.82s1.26003 2.82 2.82003 2.82 2.82-1.26 2.82-2.82-1.26-2.82-2.82-2.82z"/><path d="m5.05047 13.8711c-1.55 0-2.82 1.26-2.82 2.82s1.26 2.82 2.82 2.82 2.82-1.26 2.82-2.82-1.27-2.82-2.82-2.82z"/><path d="m18.9509 13.8711c-1.55 0-2.82 1.26-2.82 2.82s1.26 2.82 2.82 2.82 2.82-1.26 2.82-2.82-1.26-2.82-2.82-2.82z"/></g></svg>