<svg viewBox="0 0 72 72" xmlns="http://www.w3.org/2000/svg"><g fill="none" stroke="#000" stroke-miterlimit="10" stroke-width="2"><circle cx="21" cy="17" r="3"/><path d="m15 30s1-4.3112 3-5.3112 4-1 6 0 3 5.3112 3 5.3112" stroke-linecap="round" stroke-linejoin="round"/><circle cx="55.9917" cy="26.3237" r="3"/><path d="m49.9917 39.3237s1-4.3112 3-5.3112 4-1 6 0 3 5.3112 3 5.3112" stroke-linecap="round" stroke-linejoin="round"/><circle cx="29.9928" cy="47.0078" r="3"/><g stroke-linecap="round" stroke-linejoin="round"><path d="m23.9928 60.0078s1-4.3112 3-5.3112 4-1 6 0 3 5.3112 3 5.3112"/><path d="m52.552 20.1356c-4.219-4.9768-10.5166-8.1356-17.552-8.1356-2.7693 0-5.4243.4894-7.8832 1.3865"/><path d="m39.4332 57.5731c8.2126-1.6036 14.8614-7.5774 17.4267-15.4016"/><path d="m12.0868 32.9884c-.0575.6629-.0868 1.3338-.0868 2.0116 0 7.9743 4.0582 15.0008 10.2221 19.1268"/></g></g></svg>